<svg
  width="24"
  height="24"
  viewBox="0 0 24 24"
  fill="none"
  xmlns="http://www.w3.org/2000/svg"
>
  <path
    fill-rule="evenodd"
    clip-rule="evenodd"
    d="M12 2C6.48 2 2 6.48 2 12C2 16.42 4.87 20.17 8.84 21.5C9.34 21.58 9.5 21.28 9.5 21C9.5 20.78 9.49 20.09 9.49 19.26C7 19.91 6.34 18.68 6.34 18.68C5.87 17.73 5.16 17.46 5.16 17.46C4.19 16.88 5.23 16.89 5.23 16.89C6.3 16.96 6.84 18 6.84 18C7.8 19.4 9.32 18.98 9.91 18.72C9.99 18.02 10.26 17.58 10.55 17.34C8.35 17.09 6 16.14 6 12.57C6 11.44 6.44 10.5 7.19 9.79C7.07 9.53 6.7 8.41 7.28 7.09C7.28 7.09 8.14 6.83 9.5 8.04C10.32 7.77 11.21 7.64 12.1 7.64C12.99 7.64 13.88 7.77 14.7 8.04C16.06 6.83 16.92 7.09 16.92 7.09C17.5 8.41 17.13 9.53 17.01 9.79C17.76 10.5 18.2 11.44 18.2 12.57C18.2 16.15 15.84 17.08 13.64 17.33C14 17.61 14.34 18.19 14.34 19.03C14.34 20.28 14.32 21.2 14.32 21C14.32 21.28 14.47 21.59 14.98 21.5C18.94 20.17 21.8 16.42 21.8 12C21.8 6.48 17.52 2 12 2Z"
    fill="black"
  />
</svg>
