<svg
          width="50"
          height="50"
          viewBox="0 0 24 24"
          fill="none"
          xmlns="http://www.w3.org/2000/svg"
        >
          <rect width="24" height="24" rx="4" fill="#4CAF50" />
          <path
            d="M16 4H8C6.89543 4 6 4.89543 6 6V18C6 19.1046 6.89543 20 8 20H16C17.1046 20 18 19.1046 18 18V6C18 4.89543 17.1046 4 16 4Z"
            fill="white"
          />
          <path
            d="M9 7H15C15.5523 7 16 7.44772 16 8C16 8.55228 15.5523 9 15 9H9C8.44772 9 8 8.55228 8 8C8 7.44772 8.44772 7 9 7Z"
            fill="#4CAF50"
          />
          <path
            d="M9 11H15C15.5523 11 16 11.4477 16 12C16 12.5523 15.5523 13 15 13H9C8.44772 13 8 12.5523 8 12C8 11.4477 8.44772 11 9 11Z"
            fill="#4CAF50"
          />
          <path
            d="M11 15H15C15.5523 15 16 15.4477 16 16C16 16.5523 15.5523 17 15 17H11C10.4477 17 10 16.5523 10 16C10 15.4477 10.4477 15 11 15Z"
            fill="#4CAF50"
          />
        </svg>